<svg xmlns="http://www.w3.org/2000/svg" viewBox="0 0 24 24" fill="none" stroke="#475467" stroke-width="1.8" stroke-linecap="round" stroke-linejoin="round">
  <path d="M12 15.5a3.5 3.5 0 1 0 0-7 3.5 3.5 0 0 0 0 7Z"/>
  <path d="M19 13.4a7.8 7.8 0 0 0 .1-1.4 7.8 7.8 0 0 0-.1-1.4l2-1.5-2-3.4-2.3.9a8 8 0 0 0-2.4-1.4L14 3h-4l-.3 2.2a8 8 0 0 0-2.4 1.4L5 5.7l-2 3.4 2 1.5A7.8 7.8 0 0 0 4.9 12c0 .5 0 1 .1 1.4l-2 1.5 2 3.4 2.3-.9a8 8 0 0 0 2.4 1.4L10 21h4l.3-2.2a8 8 0 0 0 2.4-1.4l2.3.9 2-3.4-2-1.5Z"/>
</svg>
